<?xml version="1.0" encoding="UTF-8"?>
<svg xmlns="http://www.w3.org/2000/svg" viewBox="0 0 1100 680" font-family="Segoe UI, system-ui, sans-serif">
  <defs>
    <style>
      .title { font-size: 22px; font-weight: 700; fill: #1a237e; }
      .subtitle { font-size: 13px; fill: #546e7a; }
      .hdr { font-size: 13px; font-weight: 600; fill: #37474f; }
      .idx { font-size: 11px; fill: #37474f; font-weight: 600; }
      .lbl { font-size: 10px; fill: #263238; }
      .note { font-size: 11px; fill: #546e7a; }
      .byte { stroke: #455a64; stroke-width: 1.2; }
    </style>
    <pattern id="p-ver" patternUnits="userSpaceOnUse" width="48" height="48">
      <rect width="24" height="48" fill="#2196F3"/><rect x="24" width="24" height="48" fill="#FFC107"/>
    </pattern>
    <pattern id="p-var" patternUnits="userSpaceOnUse" width="48" height="48">
      <rect width="14" height="48" fill="#9C27B0"/><rect x="14" width="34" height="48" fill="#FF9800"/>
    </pattern>
  </defs>

  <text x="550" y="34" text-anchor="middle" class="title">UUIDv7 (RFC 9562) &#8212; &#1094;&#1074;&#1077;&#1090;&#1086;&#1074;&#1099;&#1077; &#1084;&#1072;&#1089;&#1082;&#1080; &#1087;&#1086;&#1083;&#1077;&#1081;</text>
  <text x="550" y="56" text-anchor="middle" class="subtitle">&#1042;&#1077;&#1088;&#1093;&#1085;&#1080;&#1081; &#1088;&#1103;&#1076;: Network Order &#183; &#1053;&#1080;&#1078;&#1085;&#1080;&#1081; &#1088;&#1103;&#1076;: YDB wire (&#1087;&#1086;&#1089;&#1083;&#1077; mixed-endian &#1087;&#1077;&#1088;&#1077;&#1089;&#1090;&#1072;&#1085;&#1086;&#1074;&#1082;&#1080; MSB)</text>

  <g transform="translate(40, 72)">
    <rect x="0" y="0" width="14" height="14" fill="#4CAF50"/><text x="20" y="12" class="lbl">unix_ts_ms (48 &#1073;&#1080;&#1090;, &#1084;&#1089;)</text>
    <rect x="180" y="0" width="14" height="14" fill="#2196F3"/><text x="200" y="12" class="lbl">ver = 7 (4 &#1073;&#1080;&#1090;&#1072;)</text>
    <rect x="330" y="0" width="14" height="14" fill="#FFC107"/><text x="350" y="12" class="lbl">rand_a (12 &#1073;&#1080;&#1090;)</text>
    <rect x="480" y="0" width="14" height="14" fill="#9C27B0"/><text x="500" y="12" class="lbl">var RFC-4122 (2 &#1073;&#1080;&#1090;&#1072;)</text>
    <rect x="660" y="0" width="14" height="14" fill="#FF9800"/><text x="680" y="12" class="lbl">rand_b (62 &#1073;&#1080;&#1090;&#1072;)</text>
  </g>

  <text x="40" y="118" class="hdr">Network Order (RFC, &#1073;&#1072;&#1081;&#1090;&#1099; 0&#8211;15)</text>
  <g transform="translate(40, 126)">
  <g><rect x="0" y="0" width="48" height="52" fill="#4CAF50" class="byte"/><text x="24" y="30" text-anchor="middle" class="idx">0</text>
<text x="24" y="46" text-anchor="middle" class="lbl">ts</text>
</g>
  <g><rect x="52" y="0" width="48" height="52" fill="#4CAF50" class="byte"/><text x="76" y="30" text-anchor="middle" class="idx">1</text>
</g>
  <g><rect x="104" y="0" width="48" height="52" fill="#4CAF50" class="byte"/><text x="128" y="30" text-anchor="middle" class="idx">2</text>
</g>
  <g><rect x="156" y="0" width="48" height="52" fill="#4CAF50" class="byte"/><text x="180" y="30" text-anchor="middle" class="idx">3</text>
</g>
  <g><rect x="208" y="0" width="48" height="52" fill="#4CAF50" class="byte"/><text x="232" y="30" text-anchor="middle" class="idx">4</text>
</g>
  <g><rect x="260" y="0" width="48" height="52" fill="#4CAF50" class="byte"/><text x="284" y="30" text-anchor="middle" class="idx">5</text>
</g>
  <g><rect x="312" y="0" width="48" height="52" fill="url(#True)" class="byte"/><text x="336" y="30" text-anchor="middle" class="idx">6</text>
<text x="336" y="46" text-anchor="middle" class="lbl">v|a</text>
</g>
  <g><rect x="364" y="0" width="48" height="52" fill="#FFC107" class="byte"/><text x="388" y="30" text-anchor="middle" class="idx">7</text>
<text x="388" y="46" text-anchor="middle" class="lbl">a</text>
</g>
  <g><rect x="428" y="0" width="48" height="52" fill="url(#True)" class="byte"/><text x="452" y="30" text-anchor="middle" class="idx">8</text>
<text x="452" y="46" text-anchor="middle" class="lbl">V|b</text>
</g>
  <g><rect x="480" y="0" width="48" height="52" fill="#FF9800" class="byte"/><text x="504" y="30" text-anchor="middle" class="idx">9</text>
</g>
  <g><rect x="532" y="0" width="48" height="52" fill="#FF9800" class="byte"/><text x="556" y="30" text-anchor="middle" class="idx">10</text>
</g>
  <g><rect x="584" y="0" width="48" height="52" fill="#FF9800" class="byte"/><text x="608" y="30" text-anchor="middle" class="idx">11</text>
</g>
  <g><rect x="636" y="0" width="48" height="52" fill="#FF9800" class="byte"/><text x="660" y="30" text-anchor="middle" class="idx">12</text>
</g>
  <g><rect x="688" y="0" width="48" height="52" fill="#FF9800" class="byte"/><text x="712" y="30" text-anchor="middle" class="idx">13</text>
</g>
  <g><rect x="740" y="0" width="48" height="52" fill="#FF9800" class="byte"/><text x="764" y="30" text-anchor="middle" class="idx">14</text>
</g>
  <g><rect x="792" y="0" width="48" height="52" fill="#FF9800" class="byte"/><text x="816" y="30" text-anchor="middle" class="idx">15</text>
</g>
  </g>

  <g transform="translate(40, 200)">
    <rect x="0" y="0" width="840" height="56" rx="4" fill="#eceff1" stroke="#90a4ae"/>
    <text x="10" y="18" class="hdr">&#1041;&#1080;&#1090;&#1086;&#1074;&#1072;&#1103; &#1088;&#1072;&#1089;&#1082;&#1083;&#1072;&#1076;&#1082;&#1072; UUIDv7 (MSB-first, 128 &#1073;&#1080;&#1090;)</text>
    <rect x="10" y="26" width="315" height="18" fill="#4CAF50" stroke="#2e7d32"/><text x="167" y="39" text-anchor="middle" class="lbl" fill="#fff">unix_ts_ms [47:0]</text>
    <rect x="325" y="26" width="26" height="18" fill="#2196F3" stroke="#1565c0"/><text x="338" y="39" text-anchor="middle" class="lbl" fill="#fff">v7</text>
    <rect x="351" y="26" width="79" height="18" fill="#FFC107" stroke="#f57f17"/><text x="390" y="39" text-anchor="middle" class="lbl">rand_a</text>
    <rect x="430" y="26" width="13" height="18" fill="#9C27B0" stroke="#6a1b9a"/><text x="436" y="39" text-anchor="middle" class="lbl" fill="#fff" font-size="8">var</text>
    <rect x="443" y="26" width="387" height="18" fill="#FF9800" stroke="#ef6c00"/><text x="636" y="39" text-anchor="middle" class="lbl">rand_b [125:64]</text>
  </g>

  <text x="550" y="290" text-anchor="middle" class="note">MSB (&#1073;&#1072;&#1081;&#1090;&#1099; 0&#8211;7): reorder() &#183; LSB (&#1073;&#1072;&#1081;&#1090;&#1099; 8&#8211;15): &#1073;&#1077;&#1079; &#1080;&#1079;&#1084;&#1077;&#1085;&#1077;&#1085;&#1080;&#1081;</text>
  <path d="M 550 300 L 550 330" stroke="#78909c" stroke-width="2"/>
  <polygon points="545,330 555,330 550,340" fill="#78909c"/>

  <text x="40" y="352" class="hdr">YDB wire (&#1073;&#1072;&#1081;&#1090;&#1099; 0&#8211;15, &#1087;&#1086;&#1088;&#1103;&#1076;&#1086;&#1082; &#1089;&#1086;&#1088;&#1090;&#1080;&#1088;&#1086;&#1074;&#1082;&#1080;)</text>
  <g transform="translate(40, 360)">
  <g><rect x="0" y="0" width="48" height="52" fill="#4CAF50" class="byte"/><text x="24" y="30" text-anchor="middle" class="idx">0</text>
<text x="24" y="46" text-anchor="middle" class="lbl">&#8592;3</text>
</g>
  <g><rect x="52" y="0" width="48" height="52" fill="#4CAF50" class="byte"/><text x="76" y="30" text-anchor="middle" class="idx">1</text>
<text x="76" y="46" text-anchor="middle" class="lbl">&#8592;2</text>
</g>
  <g><rect x="104" y="0" width="48" height="52" fill="#4CAF50" class="byte"/><text x="128" y="30" text-anchor="middle" class="idx">2</text>
<text x="128" y="46" text-anchor="middle" class="lbl">&#8592;1</text>
</g>
  <g><rect x="156" y="0" width="48" height="52" fill="#4CAF50" class="byte"/><text x="180" y="30" text-anchor="middle" class="idx">3</text>
<text x="180" y="46" text-anchor="middle" class="lbl">&#8592;0</text>
</g>
  <g><rect x="208" y="0" width="48" height="52" fill="#4CAF50" class="byte"/><text x="232" y="30" text-anchor="middle" class="idx">4</text>
<text x="232" y="46" text-anchor="middle" class="lbl">&#8592;5</text>
</g>
  <g><rect x="260" y="0" width="48" height="52" fill="#4CAF50" class="byte"/><text x="284" y="30" text-anchor="middle" class="idx">5</text>
<text x="284" y="46" text-anchor="middle" class="lbl">&#8592;4</text>
</g>
  <g><rect x="312" y="0" width="48" height="52" fill="#FFC107" class="byte"/><text x="336" y="30" text-anchor="middle" class="idx">6</text>
<text x="336" y="46" text-anchor="middle" class="lbl">&#8592;7</text>
</g>
  <g><rect x="364" y="0" width="48" height="52" fill="url(#True)" class="byte"/><text x="388" y="30" text-anchor="middle" class="idx">7</text>
<text x="388" y="46" text-anchor="middle" class="lbl">&#8592;6</text>
</g>
  <g><rect x="428" y="0" width="48" height="52" fill="url(#True)" class="byte"/><text x="452" y="30" text-anchor="middle" class="idx">8</text>
</g>
  <g><rect x="480" y="0" width="48" height="52" fill="#FF9800" class="byte"/><text x="504" y="30" text-anchor="middle" class="idx">9</text>
</g>
  <g><rect x="532" y="0" width="48" height="52" fill="#FF9800" class="byte"/><text x="556" y="30" text-anchor="middle" class="idx">10</text>
</g>
  <g><rect x="584" y="0" width="48" height="52" fill="#FF9800" class="byte"/><text x="608" y="30" text-anchor="middle" class="idx">11</text>
</g>
  <g><rect x="636" y="0" width="48" height="52" fill="#FF9800" class="byte"/><text x="660" y="30" text-anchor="middle" class="idx">12</text>
</g>
  <g><rect x="688" y="0" width="48" height="52" fill="#FF9800" class="byte"/><text x="712" y="30" text-anchor="middle" class="idx">13</text>
</g>
  <g><rect x="740" y="0" width="48" height="52" fill="#FF9800" class="byte"/><text x="764" y="30" text-anchor="middle" class="idx">14</text>
</g>
  <g><rect x="792" y="0" width="48" height="52" fill="#FF9800" class="byte"/><text x="816" y="30" text-anchor="middle" class="idx">15</text>
</g>
  </g>

  <text x="40" y="450" class="hdr">&#1053;&#1072;&#1083;&#1086;&#1078;&#1077;&#1085;&#1080;&#1077; &#1084;&#1072;&#1089;&#1086;&#1082;: &#1082;&#1072;&#1082;&#1080;&#1077; &#1087;&#1086;&#1083;&#1103; &#1087;&#1086;&#1087;&#1072;&#1076;&#1072;&#1102;&#1090; &#1074; &#1082;&#1072;&#1082;&#1080;&#1077; YDB-&#1073;&#1072;&#1081;&#1090;&#1099;</text>
  <g transform="translate(40, 462)">
    <rect x="0" y="0" width="1020" height="28" fill="#cfd8dc"/>
    <text x="60" y="19" text-anchor="middle" class="hdr">&#1055;&#1086;&#1083;&#1077; UUIDv7</text>
    <text x="260" y="19" text-anchor="middle" class="hdr">Network &#1073;&#1072;&#1081;&#1090;&#1099;</text>
    <text x="500" y="19" text-anchor="middle" class="hdr">YDB wire &#1073;&#1072;&#1081;&#1090;&#1099; (MSB-&#1095;&#1072;&#1089;&#1090;&#1100;)</text>
    <text x="780" y="19" text-anchor="middle" class="hdr">&#1047;&#1072;&#1084;&#1077;&#1095;&#1072;&#1085;&#1080;&#1077;</text>

    <rect x="0" y="28" width="1020" height="24" fill="#e8f5e9" stroke="#cfd8dc"/>
    <text x="60" y="44" text-anchor="middle" class="lbl">unix_ts_ms</text>
    <text x="260" y="44" text-anchor="middle" class="lbl">0, 1, 2, 3, 4, 5</text>
    <text x="500" y="44" text-anchor="middle" class="lbl">0&#8592;3, 1&#8592;2, 2&#8592;1, 3&#8592;0, 4&#8592;5, 5&#8592;4</text>
    <text x="780" y="44" text-anchor="middle" class="lbl">timestamp &#171;&#1087;&#1077;&#1088;&#1077;&#1084;&#1077;&#1096;&#1072;&#1085;&#187; &#1074; MSB</text>

    <rect x="0" y="52" width="1020" height="24" fill="#fff8e1" stroke="#cfd8dc"/>
    <text x="60" y="68" text-anchor="middle" class="lbl">ver + rand_a</text>
    <text x="260" y="68" text-anchor="middle" class="lbl">6, 7</text>
    <text x="500" y="68" text-anchor="middle" class="lbl">7&#8592;6, 6&#8592;7</text>
    <text x="780" y="68" text-anchor="middle" class="lbl">&#1087;&#1072;&#1088;&#1072; &#1073;&#1072;&#1081;&#1090;&#1086;&#1074; &#1084;&#1077;&#1085;&#1103;&#1077;&#1090;&#1089;&#1103; &#1084;&#1077;&#1089;&#1090;&#1072;&#1084;&#1080;</text>

    <rect x="0" y="76" width="1020" height="24" fill="#fff3e0" stroke="#cfd8dc"/>
    <text x="60" y="92" text-anchor="middle" class="lbl">var + rand_b</text>
    <text x="260" y="92" text-anchor="middle" class="lbl">8-15</text>
    <text x="500" y="92" text-anchor="middle" class="lbl">8&#8211;15 (&#1073;&#1077;&#1079; &#1080;&#1079;&#1084;&#1077;&#1085;&#1077;&#1085;&#1080;&#1081;)</text>
    <text x="780" y="92" text-anchor="middle" class="lbl">LSB &#1089;&#1086;&#1088;&#1090;&#1080;&#1088;&#1091;&#1077;&#1090;&#1089;&#1103; &#1083;&#1077;&#1082;&#1089;&#1080;&#1082;&#1086;&#1075;&#1088;&#1072;&#1092;&#1080;&#1095;&#1077;&#1089;&#1082;&#1080;</text>
  </g>

  <g transform="translate(40, 580)">
    <rect x="0" y="0" width="1020" height="72" rx="6" fill="#fffde7" stroke="#fbc02d"/>
    <text x="16" y="22" class="hdr">&#1055;&#1086;&#1095;&#1077;&#1084;&#1091; &#1101;&#1090;&#1086; &#1074;&#1072;&#1078;&#1085;&#1086; &#1076;&#1083;&#1103; YDB</text>
    <text x="16" y="42" class="note">&#1042; Network Order UUIDv7 &#1084;&#1086;&#1085;&#1086;&#1090;&#1086;&#1085;&#1085;&#1086; &#1088;&#1072;&#1089;&#1090;&#1105;&#1090; &#1087;&#1086; &#1074;&#1088;&#1077;&#1084;&#1077;&#1085;&#1080;. &#1042; YDB wire &#1087;&#1086;&#1088;&#1103;&#1076;&#1086;&#1082; MSB-&#1073;&#1072;&#1081;&#1090;&#1086;&#1074; &#1076;&#1088;&#1091;&#1075;&#1086;&#1081; (3 2 1 0  5 4  7 6),</text>
    <text x="16" y="58" class="note">&#1087;&#1086;&#1101;&#1090;&#1086;&#1084;&#1091; &#171;&#1089;&#1099;&#1088;&#1086;&#1081;&#187; UUIDv7 &#1085;&#1077; &#1076;&#1072;&#1105;&#1090; &#1082;&#1086;&#1088;&#1088;&#1077;&#1082;&#1090;&#1085;&#1086;&#1081; &#1089;&#1086;&#1088;&#1090;&#1080;&#1088;&#1086;&#1074;&#1082;&#1080; &#1087;&#1086; &#1074;&#1088;&#1077;&#1084;&#1077;&#1085;&#1080; &#1074; &#1090;&#1072;&#1073;&#1083;&#1080;&#1094;&#1077; &#8212; &#1076;&#1083;&#1103; &#1082;&#1083;&#1102;&#1095;&#1077;&#1081; YDB &#1080;&#1089;&#1087;&#1086;&#1083;&#1100;&#1079;&#1091;&#1077;&#1090;&#1089;&#1103; &#1072;&#1076;&#1072;&#1087;&#1090;&#1080;&#1088;&#1086;&#1074;&#1072;&#1085;&#1085;&#1099;&#1081; UUIDv8 (UuidKeyGen).</text>
  </g>
</svg>
