<?xml version="1.0" encoding="UTF-8"?>
<svg xmlns="http://www.w3.org/2000/svg" viewBox="0 0 1100 820" font-family="Segoe UI, system-ui, sans-serif">
  <defs>
    <style>
      .title { font-size: 22px; font-weight: 700; fill: #1a237e; }
      .subtitle { font-size: 13px; fill: #546e7a; }
      .hdr { font-size: 13px; font-weight: 600; fill: #37474f; }
      .idx { font-size: 11px; fill: #37474f; font-weight: 600; }
      .lbl { font-size: 10px; fill: #263238; }
      .note { font-size: 11px; fill: #546e7a; }
      .byte { stroke: #455a64; stroke-width: 1.2; }
    </style>
    <pattern id="pfx-ts" patternUnits="userSpaceOnUse" width="48" height="48">
      <rect width="12" height="48" fill="#E91E63"/><rect x="12" width="36" height="48" fill="#4CAF50"/>
    </pattern>
    <pattern id="ver-rnd" patternUnits="userSpaceOnUse" width="48" height="48">
      <rect width="24" height="48" fill="#2196F3"/><rect x="24" width="24" height="48" fill="#BDBDBD"/>
    </pattern>
    <pattern id="var-rnd" patternUnits="userSpaceOnUse" width="48" height="48">
      <rect width="14" height="48" fill="#9C27B0"/><rect x="14" width="34" height="48" fill="#BDBDBD"/>
    </pattern>
  </defs>

  <text x="550" y="34" text-anchor="middle" class="title">UUIDv8 YDB (UuidKeyGen) &#8212; &#1094;&#1074;&#1077;&#1090;&#1086;&#1074;&#1099;&#1077; &#1084;&#1072;&#1089;&#1082;&#1080; &#1087;&#1086;&#1083;&#1077;&#1081;</text>
  <text x="550" y="56" text-anchor="middle" class="subtitle">prefixBits = 10 (&#1087;&#1086; &#1091;&#1084;&#1086;&#1083;&#1095;&#1072;&#1085;&#1080;&#1102;) &#183; &#1083;&#1086;&#1075;&#1080;&#1095;&#1077;&#1089;&#1082;&#1080;&#1081; Network Order &#8594; reorder() &#8594; YDB wire</text>

  <g transform="translate(40, 72)">
    <rect x="0" y="0" width="14" height="14" fill="#E91E63"/><text x="20" y="12" class="lbl">prefix (10 &#1073;&#1080;&#1090;)</text>
    <rect x="150" y="0" width="14" height="14" fill="#4CAF50"/><text x="170" y="12" class="lbl">timestamp (30 &#1073;&#1080;&#1090;, epoch sec mod 2^30)</text>
    <rect x="430" y="0" width="14" height="14" fill="#BDBDBD"/><text x="450" y="12" class="lbl">random suffix</text>
    <rect x="580" y="0" width="14" height="14" fill="#2196F3"/><text x="600" y="12" class="lbl">ver = 8 (4 &#1073;&#1080;&#1090;&#1072;)</text>
    <rect x="720" y="0" width="14" height="14" fill="#9C27B0"/><text x="740" y="12" class="lbl">var RFC-4122 (2 &#1073;&#1080;&#1090;&#1072;)</text>
  </g>

  <g transform="translate(40, 100)">
    <rect x="0" y="0" width="840" height="70" rx="4" fill="#eceff1" stroke="#90a4ae"/>
    <text x="10" y="18" class="hdr">&#1051;&#1086;&#1075;&#1080;&#1095;&#1077;&#1089;&#1082;&#1072;&#1103; &#1088;&#1072;&#1089;&#1082;&#1083;&#1072;&#1076;&#1082;&#1072; MSB (64 &#1073;&#1080;&#1090;&#1072;, &#1076;&#1086; reorder) &#8212; BaseKeyGen / UuidKeyGen</text>
    <rect x="10" y="28" width="131" height="18" fill="#E91E63" stroke="#ad1457"/><text x="75" y="41" text-anchor="middle" class="lbl" fill="#fff">prefix [63:54]</text>
    <rect x="141" y="28" width="394" height="18" fill="#4CAF50" stroke="#2e7d32"/><text x="338" y="41" text-anchor="middle" class="lbl" fill="#fff">timestamp [53:24] — getTimestampCode()</text>
    <rect x="535" y="28" width="131" height="18" fill="#BDBDBD" stroke="#757575"/><text x="600" y="41" text-anchor="middle" class="lbl">rand [23:16]</text>
    <rect x="666" y="28" width="44" height="18" fill="#2196F3" stroke="#1565c0"/><text x="688" y="41" text-anchor="middle" class="lbl" fill="#fff">v8</text>
    <rect x="710" y="28" width="120" height="18" fill="#BDBDBD" stroke="#757575"/><text x="770" y="41" text-anchor="middle" class="lbl">rand [11:0]</text>
    <text x="10" y="62" class="note">timestamp = (epochSecond mod 2^30), &#1089;&#1077;&#1082;&#1091;&#1085;&#1076;&#1099; · &#1084;&#1072;&#1089;&#1082;&#1072; PREFIX: 0xFFC0000000000000 · TS: 0x003FFFFFF0000000</text>
  </g>

  <text x="40" y="198" class="hdr">Network Order &#8212; &#1073;&#1072;&#1081;&#1090;&#1099; 0&#8211;7 (MSB) &#1080; 8&#8211;15 (LSB)</text>
  <g transform="translate(40, 206)">
    <g><rect x="0" y="0" width="48" height="52" fill="#E91E63" class="byte"/><text x="24" y="28" text-anchor="middle" class="idx">0</text>
<text x="24" y="44" text-anchor="middle" class="lbl">pfx</text>
</g>
    <g><rect x="52" y="0" width="48" height="52" fill="url(#True)" class="byte"/><text x="76" y="28" text-anchor="middle" class="idx">1</text>
<text x="76" y="44" text-anchor="middle" class="lbl">P|T</text>
</g>
    <g><rect x="104" y="0" width="48" height="52" fill="#4CAF50" class="byte"/><text x="128" y="28" text-anchor="middle" class="idx">2</text>
<text x="128" y="44" text-anchor="middle" class="lbl">ts</text>
</g>
    <g><rect x="156" y="0" width="48" height="52" fill="#4CAF50" class="byte"/><text x="180" y="28" text-anchor="middle" class="idx">3</text>
<text x="180" y="44" text-anchor="middle" class="lbl">ts</text>
</g>
    <g><rect x="208" y="0" width="48" height="52" fill="#4CAF50" class="byte"/><text x="232" y="28" text-anchor="middle" class="idx">4</text>
<text x="232" y="44" text-anchor="middle" class="lbl">ts</text>
</g>
    <g><rect x="260" y="0" width="48" height="52" fill="#BDBDBD" class="byte"/><text x="284" y="28" text-anchor="middle" class="idx">5</text>
<text x="284" y="44" text-anchor="middle" class="lbl">rnd</text>
</g>
    <g><rect x="312" y="0" width="48" height="52" fill="url(#True)" class="byte"/><text x="336" y="28" text-anchor="middle" class="idx">6</text>
<text x="336" y="44" text-anchor="middle" class="lbl">v|r</text>
</g>
    <g><rect x="364" y="0" width="48" height="52" fill="#BDBDBD" class="byte"/><text x="388" y="28" text-anchor="middle" class="idx">7</text>
<text x="388" y="44" text-anchor="middle" class="lbl">rnd</text>
</g>
    <g><rect x="428" y="0" width="48" height="52" fill="url(#True)" class="byte"/><text x="452" y="28" text-anchor="middle" class="idx">8</text>
<text x="452" y="44" text-anchor="middle" class="lbl">V|r</text>
</g>
    <g><rect x="480" y="0" width="48" height="52" fill="#BDBDBD" class="byte"/><text x="504" y="28" text-anchor="middle" class="idx">9</text>
</g>
    <g><rect x="532" y="0" width="48" height="52" fill="#BDBDBD" class="byte"/><text x="556" y="28" text-anchor="middle" class="idx">10</text>
</g>
    <g><rect x="584" y="0" width="48" height="52" fill="#BDBDBD" class="byte"/><text x="608" y="28" text-anchor="middle" class="idx">11</text>
</g>
    <g><rect x="636" y="0" width="48" height="52" fill="#BDBDBD" class="byte"/><text x="660" y="28" text-anchor="middle" class="idx">12</text>
</g>
    <g><rect x="688" y="0" width="48" height="52" fill="#BDBDBD" class="byte"/><text x="712" y="28" text-anchor="middle" class="idx">13</text>
</g>
    <g><rect x="740" y="0" width="48" height="52" fill="#BDBDBD" class="byte"/><text x="764" y="28" text-anchor="middle" class="idx">14</text>
</g>
    <g><rect x="792" y="0" width="48" height="52" fill="#BDBDBD" class="byte"/><text x="816" y="28" text-anchor="middle" class="idx">15</text>
</g>
  </g>

  <g transform="translate(40, 280)">
    <rect x="0" y="0" width="840" height="88" rx="4" fill="#e8f5e9" stroke="#66bb6a"/>
    <text x="14" y="22" class="hdr">&#1056;&#1072;&#1079;&#1084;&#1077;&#1097;&#1077;&#1085;&#1080;&#1077; timestamp (&#1075;&#1086;&#1076;/&#1074;&#1088;&#1077;&#1084;&#1103; &#1075;&#1077;&#1085;&#1077;&#1088;&#1072;&#1094;&#1080;&#1080;) &#1074; Network Order &#8212; &#1073;&#1072;&#1081;&#1090;&#1099; 1&#8211;4</text>
    <text x="14" y="42" class="note">30-&#1073;&#1080;&#1090;&#1085;&#1099;&#1081; &#1082;&#1086;&#1076;: getTimestampCode(instant) = epochSecond mod 2^30 (&#1089;&#1077;&#1082;&#1091;&#1085;&#1076;&#1099;, &#1091;&#1089;&#1077;&#1095;&#1077;&#1085;&#1080;&#1077; &#1076;&#1086; &#1094;&#1077;&#1083;&#1099;&#1093;)</text>
    <text x="14" y="58" class="note">&#1041;&#1072;&#1081;&#1090; 1 [5:0] + &#1073;&#1072;&#1081;&#1090;&#1099; 2, 3, 4 &#8212; &#1086;&#1089;&#1085;&#1086;&#1074;&#1085;&#1086;&#1077; &#1090;&#1077;&#1083;&#1086; timestamp &#183; &#1089;&#1090;&#1072;&#1088;&#1096;&#1080;&#1077; &#1073;&#1080;&#1090;&#1099; timestamp &#1084;&#1077;&#1085;&#1103;&#1102;&#1090;&#1089;&#1103; ~&#1088;&#1072;&#1079; &#1074; &#1075;&#1086;&#1076;</text>
    <text x="14" y="74" class="note">&#1055;&#1088;&#1080;&#1084;&#1077;&#1088; 2024-06-15T12:34:56Z &#8594; code = 1718450096 mod 2^30 = 0x266A0230</text>
  </g>

  <text x="550" y="400" text-anchor="middle" class="note">&#8595; reorder(msb) &#8212; &#1087;&#1077;&#1088;&#1077;&#1089;&#1090;&#1072;&#1085;&#1086;&#1074;&#1082;&#1072; &#1076;&#1083;&#1103; YDB GUID mixed-endian &#8595;</text>

  <text x="40" y="428" class="hdr">YDB wire &#1087;&#1086;&#1089;&#1083;&#1077; reorder() &#8212; &#1073;&#1072;&#1081;&#1090;&#1099; &#1089;&#1086;&#1088;&#1090;&#1080;&#1088;&#1091;&#1102;&#1090;&#1089;&#1103; &#1074; &#1087;&#1086;&#1088;&#1103;&#1076;&#1082;&#1077; 3 2 1 0  5 4  7 6  8&#8230;F</text>
  <g transform="translate(40, 436)">
    <g><rect x="0" y="0" width="48" height="52" fill="#4CAF50" class="byte"/><text x="24" y="28" text-anchor="middle" class="idx">0</text>
<text x="24" y="44" text-anchor="middle" class="lbl">&#8592;3 ts</text>
</g>
    <g><rect x="52" y="0" width="48" height="52" fill="#4CAF50" class="byte"/><text x="76" y="28" text-anchor="middle" class="idx">1</text>
<text x="76" y="44" text-anchor="middle" class="lbl">&#8592;2 ts</text>
</g>
    <g><rect x="104" y="0" width="48" height="52" fill="url(#True)" class="byte"/><text x="128" y="28" text-anchor="middle" class="idx">2</text>
<text x="128" y="44" text-anchor="middle" class="lbl">&#8592;1</text>
</g>
    <g><rect x="156" y="0" width="48" height="52" fill="#E91E63" class="byte"/><text x="180" y="28" text-anchor="middle" class="idx">3</text>
<text x="180" y="44" text-anchor="middle" class="lbl">&#8592;0 pfx</text>
</g>
    <g><rect x="208" y="0" width="48" height="52" fill="#BDBDBD" class="byte"/><text x="232" y="28" text-anchor="middle" class="idx">4</text>
<text x="232" y="44" text-anchor="middle" class="lbl">&#8592;5</text>
</g>
    <g><rect x="260" y="0" width="48" height="52" fill="#4CAF50" class="byte"/><text x="284" y="28" text-anchor="middle" class="idx">5</text>
<text x="284" y="44" text-anchor="middle" class="lbl">&#8592;4 ts</text>
</g>
    <g><rect x="312" y="0" width="48" height="52" fill="#BDBDBD" class="byte"/><text x="336" y="28" text-anchor="middle" class="idx">6</text>
<text x="336" y="44" text-anchor="middle" class="lbl">&#8592;7</text>
</g>
    <g><rect x="364" y="0" width="48" height="52" fill="url(#True)" class="byte"/><text x="388" y="28" text-anchor="middle" class="idx">7</text>
<text x="388" y="44" text-anchor="middle" class="lbl">&#8592;6</text>
</g>
    <g><rect x="428" y="0" width="48" height="52" fill="url(#True)" class="byte"/><text x="452" y="28" text-anchor="middle" class="idx">8</text>
</g>
    <g><rect x="480" y="0" width="48" height="52" fill="#BDBDBD" class="byte"/><text x="504" y="28" text-anchor="middle" class="idx">9</text>
</g>
    <g><rect x="532" y="0" width="48" height="52" fill="#BDBDBD" class="byte"/><text x="556" y="28" text-anchor="middle" class="idx">10</text>
</g>
    <g><rect x="584" y="0" width="48" height="52" fill="#BDBDBD" class="byte"/><text x="608" y="28" text-anchor="middle" class="idx">11</text>
</g>
    <g><rect x="636" y="0" width="48" height="52" fill="#BDBDBD" class="byte"/><text x="660" y="28" text-anchor="middle" class="idx">12</text>
</g>
    <g><rect x="688" y="0" width="48" height="52" fill="#BDBDBD" class="byte"/><text x="712" y="28" text-anchor="middle" class="idx">13</text>
</g>
    <g><rect x="740" y="0" width="48" height="52" fill="#BDBDBD" class="byte"/><text x="764" y="28" text-anchor="middle" class="idx">14</text>
</g>
    <g><rect x="792" y="0" width="48" height="52" fill="#BDBDBD" class="byte"/><text x="816" y="28" text-anchor="middle" class="idx">15</text>
</g>
  </g>

  <text x="40" y="530" class="hdr">&#1057;&#1074;&#1086;&#1076;&#1085;&#1072;&#1103; &#1090;&#1072;&#1073;&#1083;&#1080;&#1094;&#1072;: &#1087;&#1086;&#1083;&#1077; &#8594; Network &#1073;&#1072;&#1081;&#1090; &#8594; YDB wire &#1073;&#1072;&#1081;&#1090;</text>
  <g transform="translate(40, 542)">
    <rect x="0" y="0" width="1020" height="28" fill="#cfd8dc"/>
    <text x="90" y="19" text-anchor="middle" class="hdr">&#1055;&#1086;&#1083;&#1077; UUIDv8</text>
    <text x="250" y="19" text-anchor="middle" class="hdr">&#1041;&#1080;&#1090;&#1099; (&#1083;&#1086;&#1075;&#1080;&#1095;. MSB)</text>
    <text x="420" y="19" text-anchor="middle" class="hdr">Network &#1073;&#1072;&#1081;&#1090;&#1099;</text>
    <text x="620" y="19" text-anchor="middle" class="hdr">YDB wire (MSB)</text>
    <text x="860" y="19" text-anchor="middle" class="hdr">&#1052;&#1072;&#1089;&#1082;&#1072; (P=10)</text>

    <rect x="0" y="28" width="1020" height="24" fill="#fce4ec" stroke="#cfd8dc"/>
    <text x="90" y="44" text-anchor="middle" class="lbl">prefix</text>
    <text x="250" y="44" text-anchor="middle" class="lbl">[63:54]</text>
    <text x="420" y="44" text-anchor="middle" class="lbl">0, 1[7:6]</text>
    <text x="620" y="44" text-anchor="middle" class="lbl">3&#8592;0, 2[7:6]&#8592;1[7:6]</text>
    <text x="860" y="44" text-anchor="middle" class="lbl">0xFFC0000000000000</text>

    <rect x="0" y="52" width="1020" height="24" fill="#e8f5e9" stroke="#cfd8dc"/>
    <text x="90" y="68" text-anchor="middle" class="lbl">timestamp</text>
    <text x="250" y="68" text-anchor="middle" class="lbl">[53:24]</text>
    <text x="420" y="68" text-anchor="middle" class="lbl">1[5:0], 2, 3, 4</text>
    <text x="620" y="68" text-anchor="middle" class="lbl">0&#8592;3, 1&#8592;2, 2[5:0]&#8592;1[5:0], 5&#8592;4</text>
    <text x="860" y="68" text-anchor="middle" class="lbl">0x003FFFFFF0000000</text>

    <rect x="0" y="76" width="1020" height="24" fill="#eeeeee" stroke="#cfd8dc"/>
    <text x="90" y="92" text-anchor="middle" class="lbl">random</text>
    <text x="250" y="92" text-anchor="middle" class="lbl">[23:16],[11:0]</text>
    <text x="420" y="92" text-anchor="middle" class="lbl">5, 6[3:0], 7</text>
    <text x="620" y="92" text-anchor="middle" class="lbl">4&#8592;5, 7[3:0]&#8592;6[3:0], 6&#8592;7</text>
    <text x="860" y="92" text-anchor="middle" class="lbl">&#1086;&#1089;&#1090;&#1072;&#1090;&#1086;&#1082; MSB</text>

    <rect x="0" y="100" width="1020" height="24" fill="#e3f2fd" stroke="#cfd8dc"/>
    <text x="90" y="116" text-anchor="middle" class="lbl">version = 8</text>
    <text x="250" y="116" text-anchor="middle" class="lbl">[15:12]</text>
    <text x="420" y="116" text-anchor="middle" class="lbl">6[7:4]</text>
    <text x="620" y="116" text-anchor="middle" class="lbl">7[7:4]&#8592;6[7:4]</text>
    <text x="860" y="116" text-anchor="middle" class="lbl">updateVersion: 0x8000</text>

    <rect x="0" y="124" width="1020" height="24" fill="#f3e5f5" stroke="#cfd8dc"/>
    <text x="90" y="140" text-anchor="middle" class="lbl">variant + random</text>
    <text x="250" y="140" text-anchor="middle" class="lbl">LSB [63:0]</text>
    <text x="420" y="140" text-anchor="middle" class="lbl">8[7:6], 8[5:0]-15</text>
    <text x="620" y="140" text-anchor="middle" class="lbl">8&#8211;15 (&#1073;&#1077;&#1079; &#1087;&#1077;&#1088;&#1077;&#1089;&#1090;&#1072;&#1085;&#1086;&#1074;&#1082;&#1080;)</text>
    <text x="860" y="140" text-anchor="middle" class="lbl">updateVariant: 0x80...</text>
  </g>

  <g transform="translate(40, 710)">
    <rect x="0" y="0" width="1020" height="88" rx="6" fill="#e8eaf6" stroke="#5c6bc0"/>
    <text x="16" y="22" class="hdr">&#1055;&#1072;&#1081;&#1087;&#1083;&#1072;&#1081;&#1085; UuidKeyGen (&#1080;&#1079; &#1088;&#1077;&#1087;&#1086;&#1079;&#1080;&#1090;&#1086;&#1088;&#1080;&#1103;)</text>
    <text x="16" y="42" class="note">1. SecureRandom &#8594; 16 &#1073;&#1072;&#1081;&#1090; &#1074; Network Order · 2. update(msb, prefix, instant) &#8594; &#1074;&#1087;&#1080;&#1089;&#1072;&#1090;&#1100; prefix + timestamp</text>
    <text x="16" y="58" class="note">3. reorder(msb) &#8594; mixed-endian &#1076;&#1083;&#1103; YDB · 4. updateVersion(msb) &#8594; v8 · 5. updateVariant(lsb)</text>
    <text x="16" y="74" class="note">&#1056;&#1077;&#1079;&#1091;&#1083;&#1100;&#1090;&#1072;&#1090;: UUID &#1089;&#1086;&#1088;&#1090;&#1080;&#1088;&#1091;&#1077;&#1090;&#1089;&#1103; &#1074; YDB &#1087;&#1086; prefix &#8594; timestamp &#8594; random</text>
  </g>
</svg>
